<svg width="530" height="100" viewBox="0 0 530 100" fill="none" xmlns="http://www.w3.org/2000/svg">
<path d="M64.106 36.5174L56.2196 39.8283C55.6046 37.8357 54.7745 36.0116 53.7291 34.3562C52.7145 32.7008 51.4846 31.2906 50.0396 30.1257C48.6252 28.9301 47.0111 28.0104 45.197 27.3666C43.383 26.6922 41.3999 26.355 39.2476 26.355C36.9417 26.355 34.8202 26.7382 32.8831 27.5046C30.9769 28.271 29.2551 29.3133 27.7178 30.6315C26.2112 31.919 24.8891 33.4365 23.7515 35.1839C22.6139 36.9313 21.6608 38.8013 20.8921 40.794C20.1542 42.756 19.5854 44.7946 19.1857 46.9098C18.8167 49.0251 18.6322 51.0944 18.6322 53.1177C18.6322 56.3366 19.0012 59.5401 19.7391 62.7284C20.5078 65.9166 21.7069 68.7829 23.3364 71.3274C24.9967 73.8718 27.1336 75.9411 29.747 77.5352C32.3605 79.0987 35.5273 79.8804 39.2476 79.8804C41.2769 79.8804 42.8603 79.4359 43.9979 78.5469C45.1355 77.6272 45.7043 76.0331 45.7043 73.7645V53.4396H64.0138V86.3182H58.71L55.4817 81.122C52.53 83.3599 49.2709 85.0153 45.7043 86.0883C42.1685 87.1306 38.5558 87.6517 34.8663 87.6517C31.6072 87.6517 28.4711 87.2532 25.4579 86.4561C22.4755 85.6591 19.693 84.5248 17.1103 83.0533C14.5276 81.5818 12.1755 79.8038 10.054 77.7192C7.96329 75.6346 6.16463 73.32 4.65806 70.7756C3.18224 68.2311 2.02925 65.4721 1.19911 62.4984C0.399702 59.4941 0 56.3672 0 53.1177C0 49.8681 0.399702 46.7566 1.19911 43.7829C2.02925 40.7786 3.18224 38.0043 4.65806 35.4598C6.16463 32.8847 7.96329 30.5549 10.054 28.4702C12.1755 26.3856 14.5276 24.6076 17.1103 23.1361C19.693 21.6646 22.4755 20.5303 25.4579 19.7333C28.4711 18.9362 31.6072 18.5377 34.8663 18.5377C38.0024 18.5377 41.0617 18.9056 44.044 19.6413C47.0572 20.377 49.8551 21.496 52.4378 22.9981C55.0205 24.4696 57.3111 26.3396 59.3096 28.6082C61.3388 30.8461 62.9376 33.4825 64.106 36.5174Z" fill="#F89BEF"/>
<path d="M91.6046 86.3182H73.3643V24.4083H91.6046V86.3182Z" fill="#F89BEF"/>
<path d="M134.438 86.3182H118.081L95.4829 24.3547H113.669L130.242 73.7109L146.33 24.3547H158.92L134.438 86.3182Z" fill="#F89BEF"/>
<path d="M174.873 56.919C177.097 57.4198 179.321 57.8132 181.545 58.0993C183.769 58.3854 186.011 58.5285 188.271 58.5285C190.638 58.5285 192.827 58.3139 194.835 57.8847C196.88 57.4198 198.638 56.6687 200.108 55.6315C201.615 54.5585 202.799 53.1458 203.66 51.3933C204.52 49.6408 204.951 47.4591 204.951 44.8482C204.951 42.7381 204.664 40.8067 204.09 39.0542C203.516 37.3017 202.655 35.7996 201.507 34.5478C200.395 33.296 199.014 32.3303 197.364 31.6508C195.714 30.9355 193.795 30.5778 191.607 30.5778C189.562 30.5778 187.715 30.9534 186.065 31.7044C184.451 32.4555 183.016 33.4748 181.76 34.7624C180.541 36.0142 179.483 37.4806 178.586 39.1615C177.725 40.8425 177.008 42.595 176.434 44.419C175.86 46.2431 175.447 48.085 175.196 49.9448C174.945 51.8046 174.82 53.5571 174.82 55.2023C174.82 55.4884 174.82 55.7746 174.82 56.0607C174.82 56.3468 174.837 56.6329 174.873 56.919ZM219.694 44.6873C219.694 47.2266 219.281 49.4977 218.456 51.5006C217.631 53.4677 216.501 55.2023 215.066 56.7044C213.667 58.2066 212.035 59.4763 210.17 60.5135C208.305 61.5507 206.314 62.409 204.198 63.0886C202.081 63.7323 199.893 64.1973 197.633 64.4834C195.409 64.7695 193.239 64.9126 191.123 64.9126C188.432 64.9126 185.778 64.7338 183.159 64.3761C180.541 63.9827 177.958 63.3747 175.411 62.5521C175.806 64.9126 176.434 67.1658 177.295 69.3117C178.156 71.4219 179.303 73.2817 180.738 74.8911C182.173 76.4648 183.931 77.7166 186.011 78.6465C188.128 79.5764 190.621 80.0414 193.49 80.0414C195.391 80.0414 197.203 79.7552 198.925 79.183C200.646 78.6107 202.225 77.806 203.66 76.7688C205.094 75.7316 206.35 74.4977 207.426 73.0671C208.538 71.6365 209.435 70.0449 210.116 68.2924L217.972 71.1894C216.788 74.0149 215.156 76.4648 213.076 78.5392C211.031 80.5778 208.699 82.2767 206.081 83.6358C203.498 84.9591 200.736 85.9426 197.795 86.5864C194.889 87.2302 192.002 87.5521 189.132 87.5521C184.397 87.5521 180.021 86.7653 176.003 85.1916C171.986 83.5821 168.524 81.3468 165.619 78.4856C162.713 75.6243 160.435 72.2087 158.785 68.2388C157.135 64.2688 156.31 59.9233 156.31 55.2023C156.31 50.4813 157.135 46.1358 158.785 42.1658C160.435 38.1959 162.713 34.7803 165.619 31.919C168.524 29.0578 171.986 26.8404 176.003 25.2667C180.021 23.6572 184.397 22.8525 189.132 22.8525C191.428 22.8525 193.777 23.0135 196.181 23.3354C198.584 23.6572 200.915 24.1758 203.175 24.8911C205.435 25.5707 207.569 26.4648 209.578 27.5736C211.587 28.6823 213.327 30.0592 214.797 31.7044C216.304 33.3139 217.488 35.1916 218.349 37.3375C219.245 39.4834 219.694 41.9333 219.694 44.6873Z" fill="#F89BEF"/>
<path d="M322.79 50.1594C322.79 54.4155 322.288 58.8504 321.284 63.4641C320.279 68.0778 318.862 72.5843 317.033 76.9834C315.24 81.3468 313.069 85.4777 310.523 89.3761C307.976 93.2746 305.121 97.1388 302 100L295.188 95.8139C296.228 93.9541 297.179 91.8618 298.04 89.5371C298.9 87.2123 299.69 84.7624 300.407 82.1873C301.124 79.6122 301.752 76.9655 302.29 74.2474C302.828 71.5292 303.277 68.8289 303.635 66.1465C304.03 63.4283 304.317 60.7996 304.496 58.2602C304.676 55.7209 304.765 53.3425 304.765 51.125C304.765 49.8733 304.729 48.5142 304.658 47.0478C304.586 45.5814 304.425 44.115 304.173 42.6487C303.958 41.1823 303.617 39.7874 303.151 38.4641C302.685 37.105 302.039 35.9069 301.214 34.8697C300.425 33.7967 299.421 32.9562 298.201 32.3482C297.017 31.7044 295.582 31.3826 293.897 31.3826C292.246 31.3826 290.83 31.8296 289.646 32.7238C288.498 33.5821 287.512 34.7087 286.686 36.1036C285.861 37.4984 285.198 39.0721 284.696 40.8246C284.229 42.5771 283.871 44.3475 283.62 46.1358C283.368 47.8883 283.189 49.5693 283.081 51.1787C283.01 52.7881 282.974 54.1472 282.974 55.256V86.3182H264.841V57.4555C264.841 56.2037 264.859 54.7016 264.895 52.9491C264.931 51.1608 264.877 49.301 264.734 47.3697C264.626 45.4384 264.393 43.5249 264.034 41.6293C263.711 39.698 263.173 37.9813 262.42 36.4791C261.703 34.977 260.716 33.761 259.461 32.8311C258.205 31.8654 256.627 31.3826 254.726 31.3826C253.112 31.3826 251.748 31.8296 250.636 32.7238C249.56 33.6179 248.646 34.7803 247.892 36.2109C247.175 37.6057 246.601 39.1973 246.171 40.9856C245.776 42.7381 245.471 44.5085 245.256 46.2967C245.077 48.0492 244.969 49.7302 244.933 51.3396C244.897 52.9133 244.879 54.2188 244.879 55.256V86.3182H226.639V24.3547H233.634L240.306 38.786C241.812 33.7788 244.18 29.8804 247.408 27.0907C250.672 24.2653 254.995 22.8525 260.375 22.8525C265.218 22.8525 269.235 23.854 272.428 25.8568C275.62 27.8597 278.131 31.1143 279.961 35.6208C281.001 33.6537 282.149 31.8833 283.404 30.3096C284.696 28.7359 286.113 27.3947 287.655 26.286C289.233 25.1773 290.973 24.3368 292.874 23.7645C294.775 23.1565 296.874 22.8525 299.169 22.8525C303.402 22.8525 307.007 23.5499 309.984 24.9448C312.998 26.3039 315.455 28.1994 317.356 30.6315C319.257 33.0635 320.638 35.9605 321.499 39.3225C322.36 42.6487 322.79 46.261 322.79 50.1594Z" fill="#F89BEF"/>
<path d="M345.447 56.919C347.671 57.4198 349.895 57.8132 352.119 58.0993C354.343 58.3854 356.585 58.5285 358.845 58.5285C361.212 58.5285 363.4 58.3139 365.409 57.8847C367.454 57.4198 369.211 56.6687 370.682 55.6315C372.189 54.5585 373.372 53.1458 374.233 51.3933C375.094 49.6408 375.524 47.4591 375.524 44.8482C375.524 42.7381 375.238 40.8067 374.664 39.0542C374.09 37.3017 373.229 35.7996 372.081 34.5478C370.969 33.296 369.588 32.3303 367.938 31.6508C366.288 30.9355 364.369 30.5778 362.181 30.5778C360.136 30.5778 358.289 30.9534 356.639 31.7044C355.024 32.4555 353.59 33.4748 352.334 34.7624C351.115 36.0142 350.056 37.4806 349.16 39.1615C348.299 40.8425 347.581 42.595 347.007 44.419C346.433 46.2431 346.021 48.085 345.77 49.9448C345.519 51.8046 345.393 53.5571 345.393 55.2023C345.393 55.4884 345.393 55.7746 345.393 56.0607C345.393 56.3468 345.411 56.6329 345.447 56.919ZM390.267 44.6873C390.267 47.2266 389.855 49.4977 389.03 51.5006C388.205 53.4677 387.075 55.2023 385.64 56.7044C384.241 58.2066 382.609 59.4763 380.744 60.5135C378.878 61.5507 376.888 62.409 374.771 63.0886C372.655 63.7323 370.467 64.1973 368.207 64.4834C365.983 64.7695 363.813 64.9126 361.696 64.9126C359.006 64.9126 356.352 64.7338 353.733 64.3761C351.115 63.9827 348.532 63.3747 345.985 62.5521C346.38 64.9126 347.007 67.1658 347.868 69.3117C348.729 71.4219 349.877 73.2817 351.312 74.8911C352.747 76.4648 354.504 77.7166 356.585 78.6465C358.701 79.5764 361.194 80.0414 364.064 80.0414C365.965 80.0414 367.776 79.7552 369.498 79.183C371.22 78.6107 372.798 77.806 374.233 76.7688C375.668 75.7316 376.923 74.4977 378 73.0671C379.112 71.6365 380.008 70.0449 380.69 68.2924L388.546 71.1894C387.362 74.0149 385.73 76.4648 383.649 78.5392C381.605 80.5778 379.273 82.2767 376.654 83.6358C374.072 84.9591 371.31 85.9426 368.368 86.5864C365.463 87.2302 362.575 87.5521 359.706 87.5521C354.971 87.5521 350.594 86.7653 346.577 85.1916C342.559 83.5821 339.098 81.3468 336.192 78.4856C333.287 75.6243 331.009 72.2087 329.359 68.2388C327.709 64.2688 326.884 59.9233 326.884 55.2023C326.884 50.4813 327.709 46.1358 329.359 42.1658C331.009 38.1959 333.287 34.7803 336.192 31.919C339.098 29.0578 342.559 26.8404 346.577 25.2667C350.594 23.6572 354.971 22.8525 359.706 22.8525C362.001 22.8525 364.351 23.0135 366.754 23.3354C369.157 23.6572 371.489 24.1758 373.749 24.8911C376.009 25.5707 378.143 26.4648 380.152 27.5736C382.161 28.6823 383.9 30.0592 385.371 31.7044C386.878 33.3139 388.061 35.1916 388.922 37.3375C389.819 39.4834 390.267 41.9333 390.267 44.6873Z" fill="#F89BEF"/>
<path d="M410.861 78.271C410.861 79.6301 410.61 80.9176 410.108 82.1336C409.605 83.3139 408.906 84.3511 408.009 85.2452C407.113 86.1036 406.072 86.7831 404.889 87.2839C403.705 87.8203 402.431 88.0886 401.068 88.0886C399.705 88.0886 398.432 87.8203 397.248 87.2839C396.064 86.7831 395.024 86.1036 394.127 85.2452C393.231 84.3511 392.531 83.3139 392.029 82.1336C391.527 80.9176 391.276 79.6301 391.276 78.271C391.276 76.9477 391.527 75.6959 392.029 74.5156C392.531 73.2996 393.231 72.2624 394.127 71.404C395.024 70.5099 396.064 69.8125 397.248 69.3117C398.432 68.7753 399.705 68.507 401.068 68.507C402.431 68.507 403.705 68.7753 404.889 69.3117C406.072 69.8125 407.113 70.5099 408.009 71.404C408.906 72.2624 409.605 73.2996 410.108 74.5156C410.61 75.6959 410.861 76.9477 410.861 78.271Z" fill="#F89BEF"/>
<path d="M432.876 86.3182H414.689V0H432.876V57.1873C435.853 55.0414 438.777 52.6808 441.646 50.1057C444.552 47.5306 447.314 44.8303 449.932 42.0049C452.551 39.1436 454.972 36.2288 457.196 33.2602C459.456 30.2917 461.429 27.3232 463.115 24.3547H475.49C472.979 28.575 470.002 32.7953 466.558 37.0156C463.115 41.2002 459.366 45.2059 455.313 49.0328L475.705 86.3182H455.636L441.162 60.4598C438.472 62.2838 435.71 63.9648 432.876 65.5027V86.3182Z" fill="#F89BEF"/>
<path d="M530 86.3182H477.378V79.1293L509.93 31.5435H477.378V24.3547H530V31.5435L497.447 79.1293H530V86.3182Z" fill="#F89BEF"/>
<path d="M82.4988 18C86.8069 16.2256 89.9247 13.1965 91.6065 10.1294C93.2624 7.07497 93.4953 4.0332 92.0205 2.20814C90.688 0.573183 88.9544 -0.0478447 87.195 0.00285147C85.4355 0.0535477 83.7279 0.801317 82.4988 1.85326C81.2698 0.801317 79.5621 0.0535477 77.8027 0.00285147C76.0433 -0.0478447 74.3097 0.573183 72.9772 2.20814C71.5024 4.0332 71.7353 7.07497 73.4171 10.1294C75.073 13.1965 78.1908 16.2256 82.4988 18Z" fill="#F89BEF"/>
</svg>
